<svg version="1.1" xmlns="http://www.w3.org/2000/svg" viewBox="0 0 194 189" width="582" height="567">
  <g stroke-linecap="round" transform="translate(10 10) rotate(0 87 84.5)">
    <path d="M32 0 C69.59 0, 107.18 0, 142 0 C163.33 0, 174 10.67, 174 32 C174 60.56, 174 89.13, 174 137 C174 158.33, 163.33 169, 142 169 C118.87 169, 95.73 169, 32 169 C10.67 169, 0 158.33, 0 137 C0 97.71, 0 58.41, 0 32 C0 10.67, 10.67 0, 32 0" stroke="none" stroke-width="0" fill="#ffffff"/>
    <path d="M32 0 C75.08 0, 118.17 0, 142 0 M32 0 C70.06 0, 108.12 0, 142 0 M142 0 C163.33 0, 174 10.67, 174 32 M142 0 C163.33 0, 174 10.67, 174 32 M174 32 C174 57.03, 174 82.05, 174 137 M174 32 C174 62.31, 174 92.61, 174 137 M174 137 C174 158.33, 163.33 169, 142 169 M174 137 C174 158.33, 163.33 169, 142 169 M142 169 C99.22 169, 56.44 169, 32 169 M142 169 C103.59 169, 65.18 169, 32 169 M32 169 C10.67 169, 0 158.33, 0 137 M32 169 C10.67 169, 0 158.33, 0 137 M0 137 C0 101.14, 0 65.27, 0 32 M0 137 C0 101.59, 0 66.18, 0 32 M0 32 C0 10.67, 10.67 0, 32 0 M0 32 C0 10.67, 10.67 0, 32 0" stroke="#ffffff" stroke-width="1" fill="none"/>
  </g>
</svg>
